<svg xmlns="http://www.w3.org/2000/svg" viewBox="0 0 244 52" width="244" height="52"><defs></defs><g transform="matrix(1,0,0,1,-6.650001526,0.399999999)">
<g>
    <g transform="matrix(1,0,0,1,122,26)">
        <g>
            <path d="M-115.349998,5.200001C-115.349998,5.200001 -88.849998,5.200001 -88.849998,5.200001 C-88.849998,5.200001 -88.849998,25.099998 -88.849998,25.099998 C-88.849998,25.099998 -80.349998,25.099998 -80.349998,25.099998 C-80.349998,25.099998 -80.349998,5.200001 -80.349998,5.200001 C-80.349998,5.200001 -71.849998,5.200001 -71.849998,5.200001 C-71.849998,5.200001 -80.349998,-3.299999 -80.349998,-3.299999 C-80.349998,-3.299999 -80.349998,-23.1 -80.349998,-23.1 C-80.349998,-23.1 -88.849998,-23.1 -88.849998,-23.1 L -103.339352,-7.626463 L -115.349998,5.200001 C-115.349998,5.200001 -115.349998,5.200001 -115.349998,5.200001 ZM-106.849998,5.200001C-106.849998,5.200001 -88.849998,-16 -88.849998,-16 C-88.849998,-16 -88.858617,-3.299999 -88.858617,-3.299999 C-88.858617,-3.299999 -99.629075,-3.304643 -99.629075,-3.304643 C-99.629075,-3.304643 -106.849998,5.200001 -106.849998,5.200001 Z" fill="currentColor"/>
        </g>
        <g>
            <path d="M-43.849998,-23.1L -43.849998,-13.794231 L -43.849998,4.9 C-43.849998,8.400002 -44.650002,11.099998 -46.25,13 C-47.849998,14.900002 -50.150002,15.900002 -53.150002,15.900002 C-56.150002,15.900002 -58.449997,14.900002 -60.049999,13 C-61.649998,11.099998 -62.449997,8.400002 -62.449997,4.9 C-62.449997,4.9 -62.449997,-23.1 -62.449997,-23.1 C-62.449997,-23.1 -70.949997,-23.1 -70.949997,-23.1 C-70.949997,-23.1 -70.949997,5.4 -70.949997,5.4 C-70.949997,9.599998 -70.149998,13.200001 -68.549999,16.200001 C-66.949997,19.200001 -64.75,21.5 -61.949997,23.099998 C-59.150002,24.700001 -55.849998,25.5 -52.150002,25.5 C-48.449997,25.5 -45.150002,24.700001 -42.349998,23.099998 C-39.549995,21.5 -37.349998,19.200001 -35.75,16.200001 C-34.150002,13.200001 -33.349998,9.599998 -33.349998,5.4 C-33.349998,5.4 -33.349998,-23.1 -33.349998,-23.1 C-33.349998,-23.1 -43.849998,-23.1 -43.849998,-23.1 Z" fill="currentColor"/>
        </g>
        <g>
            <path d="M-27.849998,17.700001C-27.849998,17.700001 -20.949997,17.700001 -20.949997,17.700001 C-20.949997,17.700001 -20.949997,24.600002 -20.949997,24.600002 C-20.949997,24.600002 -27.849998,24.600002 -27.849998,24.600002 C-27.849998,24.600002 -27.849998,17.700001 -27.849998,17.700001 Z" fill="currentColor"/>
        </g>
        <g>
            <path d="M-18.25,-5.1C-18.25,-5.1 -18.25,-5.1 -18.25,-5.1 C-18.25,-5.1 -18.549995,-4.6 -18.549995,-4.6 C-20.150002,-1.6 -20.949997,1.9 -20.949997,5.799999 C-20.949997,9.700001 -20.150002,13.200001 -18.549995,16.200001 C-16.949997,19.200001 -14.75,21.5 -11.949997,23.200001 C-9.150002,24.900002 -5.949997,25.700001 -2.349998,25.700001 C2.150002,25.700001 5.849998,24.5 8.950005,22.200001 C11.950005,19.900002 14.049995,16.799999 15.150002,12.900002 C15.150002,12.900002 15.250008,12.400002 15.250008,12.400002 C15.250008,12.400002 14.750008,12.400002 14.750008,12.400002 C14.750008,12.400002 6.450005,12.400002 6.450005,12.400002 C6.450005,12.400002 6.150002,12.400002 6.150002,12.400002 C6.150002,12.400002 6.049995,12.700001 6.049995,12.700001 C5.349998,14.599998 4.349998,16 2.950005,17 C1.550003,17.900002 -0.150002,18.400002 -2.349998,18.400002 C-5.349998,18.400002 -7.75,17.299999 -9.549995,15.099998 C-9.549995,15.099998 -9.549995,15.099998 -9.549995,15.099998 C-11.349998,12.900002 -12.25,9.799999 -12.25,5.799999 C-12.25,1.799999 -11.349998,-1.200001 -9.549995,-3.4 C-7.75,-5.6 -5.349998,-6.6 -2.349998,-6.6 C-0.150002,-6.6 1.550003,-6.1 2.950005,-5.1 C4.349998,-4.1 5.349998,-2.700001 6.049995,-0.9 C6.049995,-0.9 6.150002,-0.6 6.150002,-0.6 C6.150002,-0.6 6.450005,-0.6 6.450005,-0.6 C6.450005,-0.6 14.750008,-0.6 14.750008,-0.6 C14.750008,-0.6 15.250008,-0.6 15.250008,-0.6 C15.250008,-0.6 15.150002,-1.1 15.150002,-1.1 C14.150002,-5.200001 12.049995,-8.4 9.049995,-10.6 C6.049995,-12.8 2.25,-13.9 -2.349998,-13.9 C-5.949997,-13.9 -9.150002,-13.1 -11.949997,-11.4 C-11.949997,-11.4 -11.949997,-11.4 -11.949997,-11.4 C-14.650002,-10.1 -16.75,-7.9 -18.25,-5.1 C-18.25,-5.1 -18.25,-5.1 -18.25,-5.1 Z" fill="currentColor"/>
        </g>
        <g>
            <path d="M48.950005,-12C48.950005,-12 48.849998,-12.1 48.849998,-12.1 C46.549995,-13.4 43.950005,-14 41.150002,-14 C38.750008,-14 36.549995,-13.5 34.450005,-12.7 C32.849998,-12 31.450005,-11 30.250008,-9.9 C30.250008,-9.9 30.250008,-26.4 30.250008,-26.4 C30.250008,-26.4 21.650002,-17.6 21.650002,-17.6 C21.650002,-17.6 21.650002,25.099998 21.650002,25.099998 C21.650002,25.099998 30.250008,25.099998 30.250008,25.099998 C30.250008,25.099998 30.250008,3.6 30.250008,3.6 C30.250008,0.4 31.049995,-2.1 32.650002,-3.700001 C34.250008,-5.4 36.349998,-6.200001 39.049995,-6.200001 C41.750008,-6.200001 43.849998,-5.4 45.450005,-3.700001 C47.049995,-2 47.750008,0.5 47.750008,3.700001 C47.750008,3.700001 47.750008,25.099998 47.750008,25.099998 C47.750008,25.099998 56.250008,25.099998 56.250008,25.099998 C56.250008,25.099998 56.250008,2.5 56.250008,2.5 C56.250008,-1 55.650002,-3.9 54.349998,-6.4 C52.950005,-8.9 51.150002,-10.8 48.950005,-12 C48.950005,-12 48.950005,-12 48.950005,-12 Z" fill="currentColor"/>
        </g>
        <g>
            <path d="M87.750008,23.799999C89.650002,22.799999 91.250008,21.599998 92.450005,20.200001 C92.450005,20.200001 92.450005,24.599998 92.450005,24.599998 C92.450005,24.599998 92.450005,25 92.450005,25 C92.450005,25 92.849998,25 92.849998,25 C92.849998,25 100.549995,25 100.549995,25 C100.549995,25 100.950005,25 100.950005,25 C100.950005,25 100.950005,24.599998 100.950005,24.599998 C100.950005,24.599998 100.950005,-13 100.950005,-13 C100.950005,-13 100.950005,-13.4 100.950005,-13.4 C100.950005,-13.4 100.549995,-13.4 100.549995,-13.4 C100.549995,-13.4 92.849998,-13.4 92.849998,-13.4 C92.849998,-13.4 92.450005,-13.4 92.450005,-13.4 C92.450005,-13.4 92.450005,-13 92.450005,-13 C92.450005,-13 92.450005,-8.700001 92.450005,-8.700001 C91.250008,-10.1 89.650002,-11.3 87.849998,-12.2 C85.650002,-13.4 83.049995,-14 80.049995,-14 C76.750008,-14 73.750008,-13.2 71.049995,-11.5 C68.349998,-9.799999 66.150002,-7.5 64.650002,-4.6 C64.650002,-4.6 64.650002,-4.6 64.650002,-4.6 C63.049995,-1.6 62.250008,1.799999 62.250008,5.599998 C62.250008,9.400002 63.049995,12.900002 64.650002,15.900002 C66.250008,18.900002 68.349998,21.299999 71.049995,23 C73.750008,24.700001 76.750008,25.599998 79.950005,25.599998 C82.750008,25.599998 85.450005,25 87.750008,23.799999 C87.750008,23.799999 87.750008,23.799999 87.750008,23.799999 ZM90.849998,-0.799999C90.849998,-0.799999 91.150002,-0.299999 91.150002,-0.299999 C91.950005,1.4 92.349998,3.4 92.349998,5.700001 C92.349998,8.200001 91.849998,10.400002 90.849998,12.299999 C89.849998,14.200001 88.450005,15.599998 86.849998,16.5 C85.250008,17.5 83.450005,18 81.549995,18 C79.650002,18 77.950005,17.5 76.250008,16.5 C74.549995,15.5 73.250008,14.099998 72.250008,12.200001 C71.250008,10.299999 70.750008,8.099998 70.750008,5.599998 C70.750008,3.1 71.250008,0.9 72.250008,-0.9 C73.250008,-2.700001 74.549995,-4.1 76.250008,-5 C77.849998,-6 79.650002,-6.4 81.549995,-6.4 C83.450005,-6.4 85.250008,-5.9 86.849998,-5 C88.549995,-4 89.849998,-2.6 90.849998,-0.799999 C90.849998,-0.799999 90.849998,-0.799999 90.849998,-0.799999 Z" fill="currentColor"/>
        </g>
        <g>
            <path d="M119.950005,-13.3C119.950005,-13.3 119.950005,-22.6 119.950005,-22.6 C119.950005,-22.6 111.250008,-22.6 111.250008,-22.6 C111.250008,-22.6 111.250008,-13.3 111.250008,-13.3 C111.250008,-13.3 106.950005,-13.3 106.950005,-13.3 C106.950005,-13.3 106.950005,-6 106.950005,-6 C106.950005,-6 111.250008,-6 111.250008,-6 C111.250008,-6 111.250008,25.599998 111.250008,25.599998 C111.250008,25.599998 112.150002,24.700001 112.150002,24.700001 C112.150002,24.700001 112.150002,24.700001 112.150002,24.700001 C112.150002,24.700001 114.150002,22.700001 114.150002,22.700001 C114.150002,22.700001 119.950005,16.700001 119.950005,16.700001 C119.950005,16.700001 119.950005,-6 119.950005,-6 C119.950005,-6 128.950005,-6 128.950005,-6 C128.950005,-6 128.950005,-13.3 128.950005,-13.3 C128.950005,-13.3 119.950005,-13.3 119.950005,-13.3 Z" fill="currentColor"/>
        </g>
    </g>
</g></g></svg>